<svg xmlns="http://www.w3.org/2000/svg" version="1.1" xmlns:xlink="http://www.w3.org/1999/xlink" xmlns:svgjs="http://svgjs.dev/svgjs" width="1000" height="265" viewBox="0 0 1000 265"><g transform="matrix(1,0,0,1,-0.6060561595591594,0.4661344921435955)"><svg viewBox="0 0 396 105" data-background-color="#ffffff" preserveAspectRatio="xMidYMid meet" height="265" width="1000" xmlns="http://www.w3.org/2000/svg" xmlns:xlink="http://www.w3.org/1999/xlink"><g id="tight-bounds" transform="matrix(1,0,0,1,0.24000031196948157,-0.18469479877387585)"><svg viewBox="0 0 395.52 105.36938696526884" height="105.36938696526884" width="395.52"><g><svg viewBox="0 0 533.5502159240461 142.1416342210345" height="105.36938696526884" width="395.52"><g transform="matrix(1,0,0,1,138.0302159240461,19.644755525483063)"><svg viewBox="0 0 395.52 102.85212317006838" height="102.85212317006838" width="395.52"><g id="textblocktransform"><svg viewBox="0 0 395.52 102.85212317006838" height="102.85212317006838" width="395.52" id="textblock"><g><svg viewBox="0 0 395.52 67.32085003035822" height="67.32085003035822" width="395.52"><g transform="matrix(1,0,0,1,0,0)"><svg width="395.52" viewBox="2.25 -41.5 247.02999877929688 42.04999923706055" height="67.32085003035822" data-palette-color="#001f3f"><path d="M13-18.15L13-7.95Q13-6.05 13.23-4.88 13.45-3.7 14.2-3.08 14.95-2.45 16.32-2.2 17.7-1.95 19.95-1.9L19.95-1.9 19.95 0 2.25 0 2.25-1.9Q4-1.95 5.08-2.2 6.15-2.45 6.75-3.05 7.35-3.65 7.55-4.75 7.75-5.85 7.75-7.6L7.75-7.6 7.75-30.9Q7.75-32.65 7.58-33.73 7.4-34.8 6.88-35.43 6.35-36.05 5.35-36.27 4.35-36.5 2.75-36.6L2.75-36.6 2.75-38.5 31.65-38.5 32.2-28.95 30.45-28.95Q30.15-31.1 29.5-32.48 28.85-33.85 27.68-34.65 26.5-35.45 24.7-35.77 22.9-36.1 20.2-36.1L20.2-36.1 13.85-36.1Q13-36.1 13-35.25L13-35.25 13-20.15Q15.4-20.15 17.13-20.43 18.85-20.7 19.98-21.4 21.1-22.1 21.7-23.3 22.3-24.5 22.45-26.4L22.45-26.4 24.2-26.4 24.2-11.75 22.45-11.75Q22.2-13.65 21.65-14.9 21.1-16.15 20.03-16.85 18.95-17.55 17.25-17.85 15.55-18.15 13-18.15L13-18.15ZM56.65-13.6L56.65-18.5Q56.65-20.55 56.55-21.73 56.45-22.9 56.02-23.53 55.6-24.15 54.77-24.38 53.95-24.6 52.5-24.75L52.5-24.75 52.5-26.5 61.55-26.5 61.55-11.15Q61.55-8.3 61.62-6.5 61.7-4.7 61.85-3.8L61.85-3.8Q61.95-3.15 62.17-2.78 62.4-2.4 62.85-2.18 63.3-1.95 64.02-1.88 64.75-1.8 65.9-1.8L65.9-1.8 65.9-0.05 57.65 0.55 57.1-5.45 56.9-5.45Q55-2.35 52.52-0.93 50.05 0.5 47.35 0.5L47.35 0.5Q45.25 0.5 43.27-0.3 41.3-1.1 40.3-2.45L40.3-2.45Q39.45-3.55 39.07-5.5 38.7-7.45 38.7-10.55L38.7-10.55 38.7-18.5Q38.7-20.55 38.6-21.73 38.5-22.9 38.07-23.53 37.65-24.15 36.82-24.38 36-24.6 34.55-24.75L34.55-24.75 34.55-26.5 43.6-26.5 43.6-12.85Q43.6-7.4 44.87-4.95 46.15-2.5 48.95-2.5L48.95-2.5Q53.35-2.5 55.8-8.25L55.8-8.25Q56.05-8.85 56.2-9.35 56.35-9.85 56.45-10.45 56.55-11.05 56.6-11.8 56.65-12.55 56.65-13.6L56.65-13.6ZM77.8-14.55L77.8-7.85Q77.8-5.8 77.9-4.63 78-3.45 78.42-2.83 78.84-2.2 79.67-2 80.5-1.8 81.95-1.7L81.95-1.7 81.95 0 68.84 0 68.84-1.7Q70.25-1.8 71.07-2 71.9-2.2 72.34-2.8 72.8-3.4 72.92-4.5 73.05-5.6 73.05-7.5L73.05-7.5 73.05-14.15Q73.05-20.1 72.75-21.4L72.75-21.4Q72.59-22.05 72.37-22.48 72.15-22.9 71.7-23.13 71.25-23.35 70.55-23.43 69.84-23.5 68.75-23.5L68.75-23.5 68.75-25.1 76.75-27 77.34-22.05 77.55-22.05Q79.45-24.4 82-25.7 84.55-27 87.55-27L87.55-27Q89.84-27 91.75-26.25 93.65-25.5 94.65-24.2L94.65-24.2Q95.5-23.05 95.84-21.23 96.2-19.4 96.2-16.2L96.2-16.2 96.2-7.85Q96.2-5.8 96.32-4.63 96.45-3.45 96.84-2.83 97.25-2.2 98.07-2 98.9-1.8 100.25-1.7L100.25-1.7 100.25 0 87.3 0 87.3-1.7Q88.7-1.75 89.52-1.98 90.34-2.2 90.77-2.8 91.2-3.4 91.32-4.53 91.45-5.65 91.45-7.5L91.45-7.5 91.45-14.1Q91.45-16.95 91.15-18.9 90.84-20.85 90.17-22.05 89.5-23.25 88.4-23.78 87.3-24.3 85.75-24.3L85.75-24.3Q83.5-24.3 81.62-23.13 79.75-21.95 78.7-19.9L78.7-19.9Q78.45-19.4 78.27-18.95 78.09-18.5 78-17.9 77.9-17.3 77.84-16.53 77.8-15.75 77.8-14.55L77.8-14.55ZM125.64 0.5L125.64-4.2 125.44-4.2Q123.64-1.65 121.62-0.58 119.59 0.5 116.84 0.5L116.84 0.5Q113.99 0.5 111.62-0.53 109.24-1.55 107.52-3.38 105.79-5.2 104.82-7.75 103.84-10.3 103.84-13.3L103.84-13.3Q103.84-16.25 104.82-18.78 105.79-21.3 107.52-23.13 109.24-24.95 111.64-25.98 114.04-27 116.84-27L116.84-27Q119.24-27 121.12-26.2 122.99-25.4 124.74-23.65L124.74-23.65 124.74-28.75Q124.74-31.6 124.67-33.5 124.59-35.4 124.44-36.1L124.44-36.1Q124.19-37.2 123.04-37.65 121.89-38.1 119.29-38.1L119.29-38.1 119.29-39.6 129.54-41.5 129.54-12.65Q129.54-9.2 129.59-6.98 129.64-4.75 129.89-3.8L129.89-3.8Q130.04-3.2 130.27-2.8 130.49-2.4 130.92-2.18 131.34-1.95 132.07-1.85 132.79-1.75 133.94-1.75L133.94-1.75 133.94-0.05 125.64 0.5ZM124.64-11.95L124.64-15.25Q124.64-17.85 124.37-19.2 124.09-20.55 123.29-21.55L123.29-21.55Q122.14-23.05 120.37-23.83 118.59-24.6 116.84-24.6L116.84-24.6Q113.24-24.6 111.37-21.63 109.49-18.65 109.49-13.55L109.49-13.55Q109.49-10.9 109.97-8.75 110.44-6.6 111.37-5.08 112.29-3.55 113.67-2.73 115.04-1.9 116.84-1.9L116.84-1.9Q117.74-1.9 118.67-2.1 119.59-2.3 120.47-2.73 121.34-3.15 122.09-3.73 122.84-4.3 123.34-5.05L123.34-5.05Q124.04-6.15 124.34-7.7 124.64-9.25 124.64-11.95L124.64-11.95ZM140.19-23.35L137.19-23.35 137.19-25.2Q139.84-26.75 141.34-28.3 142.84-29.85 143.64-32L143.64-32 145.09-32 145.09-25.7 151.79-25.7 151.79-23.35 145.09-23.35 145.09-8.15Q145.09-6.4 145.26-5.2 145.44-4 145.84-3.28 146.24-2.55 146.89-2.25 147.54-1.95 148.54-1.95L148.54-1.95Q149.79-1.95 150.66-2.48 151.54-3 152.39-4.25L152.39-4.25 153.64-3.3Q152.94-1.45 151.22-0.48 149.49 0.5 146.94 0.5L146.94 0.5Q143.64 0.5 141.91-1.07 140.19-2.65 140.19-5.6L140.19-5.6 140.19-23.35ZM171.54-10.85L171.54-14.8Q168.69-13.7 166.71-12.65 164.74-11.6 163.54-10.55 162.34-9.5 161.81-8.45 161.29-7.4 161.29-6.3L161.29-6.3Q161.29-4.65 162.39-3.6 163.49-2.55 165.29-2.55L165.29-2.55Q166.59-2.55 167.71-3.2 168.84-3.85 169.69-4.98 170.54-6.1 171.04-7.63 171.54-9.15 171.54-10.85L171.54-10.85ZM164.34-13.8L171.54-16.95 171.54-19Q171.54-25.1 166.34-25.1L166.34-25.1Q165.49-25.1 164.89-24.95 164.29-24.8 163.89-24.45 163.49-24.1 163.16-23.45 162.84-22.8 162.54-21.85L162.54-21.85Q161.99-20.4 161.46-19.93 160.94-19.45 159.94-19.45L159.94-19.45Q157.44-19.45 157.44-21.95L157.44-21.95Q157.44-24.35 159.99-25.68 162.54-27 167.24-27L167.24-27Q172.24-27 174.34-25.23 176.44-23.45 176.44-19.2L176.44-19.2 176.44-8Q176.44-2.3 178.69-2.3L178.69-2.3Q179.39-2.3 180.04-2.48 180.69-2.65 181.14-3.4L181.14-3.4 181.84-2.2Q181.24-1.05 179.64-0.28 178.04 0.5 176.29 0.5L176.29 0.5Q174.09 0.5 173.01-0.9 171.94-2.3 171.94-4.85L171.94-4.85 171.69-4.85Q170.39-2.4 168.09-0.98 165.79 0.45 162.99 0.45L162.99 0.45Q159.84 0.45 158.04-1.15 156.24-2.75 156.24-5.45L156.24-5.45Q156.24-6.65 156.66-7.75 157.09-8.85 158.04-9.85 158.99-10.85 160.54-11.83 162.09-12.8 164.34-13.8L164.34-13.8ZM187.09-1.75L186.09 0 184.99 0 184.99-8.6 186.24-8.6Q188.19-1.55 193.34-1.55L193.34-1.55Q195.34-1.55 196.51-2.53 197.69-3.5 197.69-5.5L197.69-5.5Q197.69-6.25 197.46-6.78 197.24-7.3 196.61-7.88 195.99-8.45 194.86-9.2 193.74-9.95 191.89-11.1L191.89-11.1Q190.19-12.15 188.94-13.05 187.69-13.95 186.84-14.88 185.99-15.8 185.56-16.85 185.14-17.9 185.14-19.3L185.14-19.3Q185.14-21 185.71-22.43 186.29-23.85 187.29-24.85 188.29-25.85 189.64-26.43 190.99-27 192.59-27L192.59-27Q193.94-27 195.39-26.58 196.84-26.15 197.94-25.45L197.94-25.45 198.94-26.5 199.89-26.5 199.89-19.3 198.59-19.3Q197.49-22.35 196.19-23.65 194.89-24.95 192.99-24.95L192.99-24.95Q191.29-24.95 190.26-24.05 189.24-23.15 189.24-21.55L189.24-21.55Q189.24-20.7 189.51-20.08 189.79-19.45 190.39-18.85 190.99-18.25 191.91-17.63 192.84-17 194.14-16.2L194.14-16.2Q196.29-14.85 197.81-13.8 199.34-12.75 200.29-11.73 201.24-10.7 201.69-9.6 202.14-8.5 202.14-7.1L202.14-7.1Q202.14-3.55 199.84-1.53 197.54 0.5 193.79 0.5L193.79 0.5Q189.89 0.5 187.09-1.75L187.09-1.75ZM215.88-27L215.88-7.95Q215.88-6 216.06-4.83 216.23-3.65 216.73-2.98 217.23-2.3 218.13-2.05 219.03-1.8 220.53-1.75L220.53-1.75 220.53 0 206.18 0 206.18-1.75Q207.68-1.8 208.63-2.08 209.58-2.35 210.11-2.98 210.63-3.6 210.81-4.73 210.98-5.85 210.98-7.6L210.98-7.6 210.98-14Q210.98-16.9 210.91-18.78 210.83-20.65 210.63-21.35L210.63-21.35Q210.38-22.5 209.48-22.93 208.58-23.35 206.08-23.35L206.08-23.35 206.08-25.1 215.88-27ZM210.13-37.15L210.13-37.15Q210.13-38.45 211.03-39.35 211.93-40.25 213.23-40.25L213.23-40.25Q214.53-40.25 215.43-39.35 216.33-38.45 216.33-37.15L216.33-37.15Q216.33-35.85 215.43-34.95 214.53-34.05 213.23-34.05L213.23-34.05Q211.93-34.05 211.03-34.95 210.13-35.85 210.13-37.15ZM238.98-10.85L238.98-14.8Q236.13-13.7 234.16-12.65 232.18-11.6 230.98-10.55 229.78-9.5 229.26-8.45 228.73-7.4 228.73-6.3L228.73-6.3Q228.73-4.65 229.83-3.6 230.93-2.55 232.73-2.55L232.73-2.55Q234.03-2.55 235.16-3.2 236.28-3.85 237.13-4.98 237.98-6.1 238.48-7.63 238.98-9.15 238.98-10.85L238.98-10.85ZM231.78-13.8L238.98-16.95 238.98-19Q238.98-25.1 233.78-25.1L233.78-25.1Q232.93-25.1 232.33-24.95 231.73-24.8 231.33-24.45 230.93-24.1 230.61-23.45 230.28-22.8 229.98-21.85L229.98-21.85Q229.43-20.4 228.91-19.93 228.38-19.45 227.38-19.45L227.38-19.45Q224.88-19.45 224.88-21.95L224.88-21.95Q224.88-24.35 227.43-25.68 229.98-27 234.68-27L234.68-27Q239.68-27 241.78-25.23 243.88-23.45 243.88-19.2L243.88-19.2 243.88-8Q243.88-2.3 246.13-2.3L246.13-2.3Q246.83-2.3 247.48-2.48 248.13-2.65 248.58-3.4L248.58-3.4 249.28-2.2Q248.68-1.05 247.08-0.28 245.48 0.5 243.73 0.5L243.73 0.5Q241.53 0.5 240.46-0.9 239.38-2.3 239.38-4.85L239.38-4.85 239.13-4.85Q237.83-2.4 235.53-0.98 233.23 0.45 230.43 0.45L230.43 0.45Q227.28 0.45 225.48-1.15 223.68-2.75 223.68-5.45L223.68-5.45Q223.68-6.65 224.11-7.75 224.53-8.85 225.48-9.85 226.43-10.85 227.98-11.83 229.53-12.8 231.78-13.8L231.78-13.8Z" opacity="1" transform="matrix(1,0,0,1,0,0)" fill="#001f3f" class="wordmark-text-0" data-fill-palette-color="primary" id="text-0"></path></svg></g></svg></g><g transform="matrix(1,0,0,1,0,83.21368702212506)"><svg viewBox="0 0 232.209792 19.638436147943313" height="19.638436147943313" width="232.209792"><g transform="matrix(1,0,0,1,0,0)"><svg width="232.209792" viewBox="-0.6500000357627869 -35 433.8999938964844 36.70000076293945" height="19.638436147943313" data-palette-color="#111111"><path d="M16.7 0.45L16.5 0.1 16.7-2.35Q19.25-2.55 20.08-2.9 20.9-3.25 20.9-4.2L20.9-4.2Q20.9-5.1 20.55-6.3L20.55-6.3 19.15-11Q17.9-11.05 14.25-11.05L14.25-11.05Q11.8-11.05 9.1-10.7L9.1-10.7 7.5-6.1Q7.1-4.8 7.1-4.35L7.1-4.35Q7.1-3.35 7.73-2.93 8.35-2.5 9.8-2.5L9.8-2.5 12.35-2.5 12.5-2.25 12.2 0.3Q11.55 0.25 9.35 0.13 7.15 0 5.1 0L5.1 0Q3.15 0 1.53 0.05-0.1 0.1-0.65 0.15L-0.65 0.15-0.25-2.6Q1.05-2.8 1.85-3.58 2.65-4.35 3.35-6.25L3.35-6.25 12.75-31.7 17.95-32.55 18.45-32.4Q18.8-31.15 20-26.7 21.2-22.25 22.9-16.38 24.6-10.5 26.05-6.05L26.05-6.05Q26.6-4.2 27.53-3.48 28.45-2.75 30.45-2.55L30.45-2.55 30.6-2.3 30.25 0.15Q29.65 0.1 27.98 0.05 26.3 0 24.6 0L24.6 0Q22.05 0 19.7 0.18 17.35 0.35 16.7 0.45L16.7 0.45ZM10.15-13.95L14.15-13.95Q16.15-13.95 18.35-14.15L18.35-14.15 14.9-26.35 14.4-26.35 10.15-13.95ZM56.15 0.6Q51.6 0.6 48.25-1.3 44.9-3.2 43.07-6.73 41.25-10.25 41.25-15L41.25-15Q41.25-20.1 43.45-24.1 45.65-28.1 49.62-30.33 53.6-32.55 58.7-32.55L58.7-32.55Q60.55-32.55 62.57-32.27 64.59-32 66-31.73 67.4-31.45 67.8-31.35L67.8-31.35 68.05-30.9Q67.95-30.6 67.7-29.38 67.45-28.15 67.17-26.2 66.9-24.25 66.75-22.05L66.75-22.05 63.25-21.8Q63.3-22.05 63.35-22.75 63.4-23.45 63.4-24.35L63.4-24.35Q63.4-28.8 56.85-28.8L56.85-28.8Q52.3-28.8 49.72-25.6 47.15-22.4 47.15-16.7L47.15-16.7Q47.15-12.45 48.4-9.33 49.65-6.2 51.92-4.53 54.2-2.85 57.25-2.85L57.25-2.85Q60.35-2.85 62.17-4.65 64-6.45 64.8-10.3L64.8-10.3 68.3-10.6Q68.15-9.8 67.72-7.05 67.3-4.3 67.09-1.9L67.09-1.9 66.75-1.4Q66.75-1.35 65.15-0.83 63.55-0.3 61.2 0.15 58.85 0.6 56.15 0.6L56.15 0.6ZM79.39 0Q77.74 0 75.69 0.23 73.64 0.45 72.99 0.55L72.99 0.55 73.29-2.2Q75.54-2.6 76.32-3.45 77.09-4.3 77.09-6.35L77.09-6.35 77.14-26.7Q77.14-28.25 76.79-28.8 76.44-29.35 75.39-29.35L75.39-29.35Q74.89-29.35 74.39-29.3 73.89-29.25 73.69-29.25L73.69-29.25 73.49-29.5 73.89-32.1Q74.59-32.1 76.44-32.02 78.29-31.95 80.04-31.95L80.04-31.95Q81.84-31.95 83.87-32.05 85.89-32.15 86.69-32.2L86.69-32.2Q91.64-32.2 94.27-30.2 96.89-28.2 96.89-24.5L96.89-24.5Q96.89-22.05 95.42-20.05 93.94-18.05 91.29-16.85L91.29-16.85Q94.69-16.05 96.69-14.08 98.69-12.1 98.69-9.3L98.69-9.3Q98.69-6.55 97.09-4.33 95.49-2.1 92.67-0.8 89.84 0.5 86.44 0.5L86.44 0.5Q85.74 0.5 84.74 0.4 83.74 0.3 83.29 0.25L83.29 0.25Q80.04 0 79.39 0L79.39 0ZM82.24-17.95Q82.94-17.9 84.89-17.7 86.84-17.5 87.39-17.5L87.39-17.5Q87.39-17.35 88.54-18.03 89.69-18.7 90.62-20.03 91.54-21.35 91.54-23.5L91.54-23.5Q91.54-26.4 89.59-27.8 87.64-29.2 83.54-29.2L83.54-29.2Q83.04-29.2 82.87-28.98 82.69-28.75 82.64-28.1L82.64-28.1Q82.34-23.3 82.24-17.95L82.24-17.95ZM82.14-14.5L81.89-6.05Q81.89-4.3 83.12-3.55 84.34-2.8 87.19-2.8L87.19-2.8Q89.94-2.8 91.52-4.33 93.09-5.85 93.09-8.5L93.09-8.5Q93.09-10.9 91.57-12.45 90.04-14 87.04-14.6L87.04-14.6 82.14-14.5ZM103.49 0.55L103.79-2.15Q106.09-2.6 106.87-3.48 107.64-4.35 107.64-6.45L107.64-6.45 107.69-26.65Q107.69-28.25 107.31-28.8 106.94-29.35 105.84-29.35L105.84-29.35 103.89-29.25 103.74-29.55 104.09-32.05 107.44-32Q108.54-31.95 110.49-31.95L110.49-31.95Q111.84-31.95 116.84-32.35L116.84-32.35 116.59-29.65Q114.59-29.4 113.89-28.83 113.19-28.25 113.14-26.85L113.14-26.85Q112.89-21.65 112.69-15.53 112.49-9.4 112.49-6.05L112.49-6.05Q112.49-4 112.89-3.33 113.29-2.65 114.54-2.65L114.54-2.65Q115.34-2.65 116.99-2.8L116.99-2.8 117.14-2.55 116.69 0.15Q115.74 0.15 115.19 0.1L115.19 0.1 109.79 0Q106.94 0 103.49 0.55L103.49 0.55ZM124.34 0.25L124.74-2.4Q127.14-2.6 128.11-3.03 129.09-3.45 129.41-4.53 129.74-5.6 129.74-8.15L129.74-8.15 129.74-29.15Q126.09-29.05 124.74-28.68 123.39-28.3 122.86-27.13 122.34-25.95 121.94-22.75L121.94-22.75 118.79-22.5Q119.29-26.95 119.49-32.1L119.49-32.1 119.99-32.55 124.49-32 140.04-32 144.64-32.55 145.14-32.1Q145.34-26.85 145.79-22.75L145.79-22.75 142.64-22.5Q142.14-25.85 141.64-27.05 141.14-28.25 139.89-28.63 138.64-29 135.24-29.15L135.24-29.15Q134.99-25.9 134.76-18.85 134.54-11.8 134.54-6.1L134.54-6.1Q134.54-4.25 135.19-3.48 135.84-2.7 137.34-2.7L137.34-2.7Q138.69-2.7 140.04-2.85L140.04-2.85 140.24-2.6 139.79 0.2Q134.99 0 131.84 0L131.84 0Q128.34 0 124.34 0.25L124.34 0.25ZM173.74 1.7Q169.79-4.5 166.06-10.1 162.34-15.7 159.94-19.18 157.54-22.65 156.89-23.55L156.89-23.55 156.54-23.55 156.34-4.75Q156.39-3.55 156.74-3.1 157.09-2.65 157.99-2.65L157.99-2.65 160.39-2.7 160.54-2.45 160.09 0.2Q159.49 0.15 157.79 0.08 156.09 0 154.29 0L154.29 0Q152.84 0 151.16 0.18 149.49 0.35 148.99 0.4L148.99 0.4 149.29-2.35Q150.84-2.55 151.56-3.28 152.29-4 152.34-5.5L152.34-5.5 152.99-26.45Q152.99-28 152.11-28.65 151.24-29.3 148.74-29.55L148.74-29.55 148.54-29.9 148.89-32.2Q149.39-32.15 151.04-32.05 152.69-31.95 153.84-31.95L153.84-31.95Q154.99-31.95 156.21-32.02 157.44-32.1 157.79-32.15L157.79-32.15Q161.14-26.85 164.56-21.75 167.99-16.65 170.26-13.35 172.54-10.05 173.14-9.2L173.14-9.2 173.49-9.2 173.44-27.15Q173.44-29.3 171.79-29.3L171.79-29.3 169.99-29.25 169.84-29.55 170.24-32.15Q170.84-32.1 172.44-32.02 174.04-31.95 175.74-31.95L175.74-31.95Q177.14-31.95 178.86-32.1 180.59-32.25 181.09-32.3L181.09-32.3 180.84-29.55Q179.14-29.3 178.36-28.58 177.59-27.85 177.54-26.4L177.54-26.4 176.84 1.05 173.74 1.7ZM193.38 0.6Q191.18 0.6 189.33 0.2 187.48-0.2 186.28-0.68 185.08-1.15 185.08-1.2L185.08-1.2 184.78-1.8Q184.83-2.1 184.98-3.25 185.13-4.4 185.31-6.4 185.48-8.4 185.48-10.4L185.48-10.4 188.53-10.65Q188.53-7.35 189.03-5.68 189.53-4 190.81-3.35 192.08-2.7 194.63-2.7L194.63-2.7Q197.43-2.7 199.13-4 200.83-5.3 200.83-7.5L200.83-7.5Q200.83-9.4 199.21-10.68 197.58-11.95 194.28-13.6L194.28-13.6Q194.13-13.7 193.33-14.1L193.33-14.1Q189.53-16 187.41-17.95 185.28-19.9 185.28-22.95L185.28-22.95Q185.28-25.65 186.88-27.85 188.48-30.05 191.28-31.3 194.08-32.55 197.58-32.55L197.58-32.55Q199.63-32.55 201.43-32.25 203.23-31.95 204.31-31.65 205.38-31.35 205.63-31.25L205.63-31.25 205.83-30.8Q205.68-30.1 205.28-27.63 204.88-25.15 204.68-22.3L204.68-22.3 201.98-22.05 201.58-22.35Q201.63-22.5 201.68-23.15 201.73-23.8 201.73-24.6L201.73-24.6Q201.73-27.05 200.51-28.03 199.28-29 196.23-29L196.23-29Q193.78-29 192.18-27.78 190.58-26.55 190.58-24.7L190.58-24.7Q190.58-22.8 192.23-21.5 193.88-20.2 197.28-18.5L197.28-18.5Q200.28-17 202.06-15.9 203.83-14.8 205.11-13.15 206.38-11.5 206.38-9.3L206.38-9.3Q206.38-6.4 204.76-4.15 203.13-1.9 200.18-0.65 197.23 0.6 193.38 0.6L193.38 0.6ZM220.08 0.6Q217.88 0.6 216.03 0.2 214.18-0.2 212.98-0.68 211.78-1.15 211.78-1.2L211.78-1.2 211.48-1.8Q211.53-2.1 211.68-3.25 211.83-4.4 212.01-6.4 212.18-8.4 212.18-10.4L212.18-10.4 215.23-10.65Q215.23-7.35 215.73-5.68 216.23-4 217.51-3.35 218.78-2.7 221.33-2.7L221.33-2.7Q224.13-2.7 225.83-4 227.53-5.3 227.53-7.5L227.53-7.5Q227.53-9.4 225.91-10.68 224.28-11.95 220.98-13.6L220.98-13.6Q220.83-13.7 220.03-14.1L220.03-14.1Q216.23-16 214.11-17.95 211.98-19.9 211.98-22.95L211.98-22.95Q211.98-25.65 213.58-27.85 215.18-30.05 217.98-31.3 220.78-32.55 224.28-32.55L224.28-32.55Q226.33-32.55 228.13-32.25 229.93-31.95 231.01-31.65 232.08-31.35 232.33-31.25L232.33-31.25 232.53-30.8Q232.38-30.1 231.98-27.63 231.58-25.15 231.38-22.3L231.38-22.3 228.68-22.05 228.28-22.35Q228.33-22.5 228.38-23.15 228.43-23.8 228.43-24.6L228.43-24.6Q228.43-27.05 227.21-28.03 225.98-29 222.93-29L222.93-29Q220.48-29 218.88-27.78 217.28-26.55 217.28-24.7L217.28-24.7Q217.28-22.8 218.93-21.5 220.58-20.2 223.98-18.5L223.98-18.5Q226.98-17 228.76-15.9 230.53-14.8 231.81-13.15 233.08-11.5 233.08-9.3L233.08-9.3Q233.08-6.4 231.46-4.15 229.83-1.9 226.88-0.65 223.93 0.6 220.08 0.6L220.08 0.6ZM247.53 0.55L247.83-2.15Q250.13-2.6 250.9-3.48 251.68-4.35 251.68-6.45L251.68-6.45 251.73-26.65Q251.73-28.25 251.35-28.8 250.98-29.35 249.88-29.35L249.88-29.35 247.93-29.25 247.78-29.55 248.13-32.05 251.48-32Q252.58-31.95 254.53-31.95L254.53-31.95Q255.88-31.95 260.88-32.35L260.88-32.35 260.63-29.65Q258.63-29.4 257.93-28.83 257.23-28.25 257.18-26.85L257.18-26.85Q256.93-21.65 256.73-15.53 256.53-9.4 256.53-6.05L256.53-6.05Q256.53-4 256.93-3.33 257.33-2.65 258.58-2.65L258.58-2.65Q259.38-2.65 261.03-2.8L261.03-2.8 261.18-2.55 260.73 0.15Q259.78 0.15 259.23 0.1L259.23 0.1 253.83 0Q250.98 0 247.53 0.55L247.53 0.55ZM279.07-2Q280.42-2.4 281.02-3.1 281.62-3.8 281.62-5.05L281.62-5.05 281.82-14.4Q281.82-16.75 280.87-17.98 279.92-19.2 278.07-19.2L278.07-19.2Q275.77-19.2 272.72-16.95L272.72-16.95Q272.57-13.8 272.52-12.85L272.52-12.85Q272.22-6.45 272.22-5.1L272.22-5.1Q272.22-3.7 272.6-3.13 272.97-2.55 273.92-2.55L273.92-2.55Q274.37-2.55 274.85-2.6 275.32-2.65 275.47-2.65L275.47-2.65 275.57-2.45 275.12 0.15Q274.62 0.1 273.2 0.05 271.77 0 270.22 0L270.22 0Q268.77 0 267.05 0.13 265.32 0.25 264.82 0.3L264.82 0.3 265.17-2.25Q266.62-2.45 267.2-3.08 267.77-3.7 267.77-5.1L267.77-5.1 267.77-16.6Q267.77-18.3 267.25-18.95 266.72-19.6 265.37-19.6L265.37-19.6 264.77-19.6 264.57-19.85 264.77-21.9Q267.22-22.25 269.65-22.78 272.07-23.3 272.77-23.45L272.77-23.45 273.12-23Q273.02-22.7 272.82-21.7 272.62-20.7 272.57-19.65L272.57-19.65 272.72-19.45Q274.12-20.6 276.42-22 278.72-23.4 279.67-23.4L279.67-23.4Q283.02-23.4 284.92-21.68 286.82-19.95 286.82-16.95L286.82-16.95Q286.82-15.75 286.47-12.05L286.47-12.05Q286.02-6.2 286.02-5.15L286.02-5.15Q286.02-3.75 286.42-3.13 286.82-2.5 287.72-2.5L287.72-2.5Q288.22-2.5 288.7-2.55 289.17-2.6 289.37-2.6L289.37-2.6 289.47-2.4 289.02 0.15Q288.52 0.1 287.12 0.05 285.72 0 284.17 0L284.17 0Q282.87 0 281.12 0.2 279.37 0.4 278.82 0.5L278.82 0.5 279.07-2ZM292.37 0.6L292.67-1.95Q294.17-2.35 294.82-3.08 295.47-3.8 295.47-5.15L295.47-5.15 295.47-17Q295.47-18.45 295.02-19.1 294.57-19.75 293.52-19.75L293.52-19.75Q293.22-19.75 292.82-19.68 292.42-19.6 292.32-19.55L292.32-19.55 292.52-21.85Q294.97-22.2 297.5-22.73 300.02-23.25 300.77-23.4L300.77-23.4 301.12-22.7Q300.62-21.65 300.3-16.48 299.97-11.3 299.97-5.05L299.97-5.05Q299.97-3.7 300.35-3.13 300.72-2.55 301.62-2.55L301.62-2.55Q302.12-2.55 302.6-2.6 303.07-2.65 303.22-2.65L303.22-2.65 303.32-2.4 302.92 0.15Q302.42 0.1 301 0.05 299.57 0 297.97 0L297.97 0Q296.57 0 294.75 0.25 292.92 0.5 292.37 0.6L292.37 0.6ZM297.37-28.55Q295.97-28.55 295.22-29.4 294.47-30.25 294.47-31.55L294.47-31.55Q294.47-33.05 295.42-34.02 296.37-35 297.87-35L297.87-35Q299.22-35 300-34.15 300.77-33.3 300.77-32L300.77-32Q300.77-30.5 299.82-29.53 298.87-28.55 297.37-28.55L297.37-28.55ZM315.22 0.6Q311.72 0.6 310.22-0.83 308.72-2.25 308.72-5.5L308.72-5.5 308.72-17.3Q308.72-18.75 308.14-19.28 307.57-19.8 305.92-19.85L305.92-19.85 305.62-20.2 305.87-22.1Q307.52-22.9 309.12-24 310.72-25.1 311.77-25.93 312.82-26.75 313.07-27L313.07-27 314.27-26.5Q314.22-26.25 314.07-25.23 313.92-24.2 313.77-22.45L313.77-22.45 320.47-22.6 320.67-22.45 320.17-19.45 313.57-19.6Q313.22-14.25 313.22-7.85L313.22-7.85Q313.22-5.5 314.04-4.48 314.87-3.45 316.82-3.45L316.82-3.45Q317.52-3.45 318.22-3.65 318.92-3.85 319.39-4.05 319.87-4.25 320.02-4.3L320.02-4.3 320.57-2.85Q320.27-2.6 319.24-1.78 318.22-0.95 317.02-0.18 315.82 0.6 315.22 0.6L315.22 0.6ZM323.27 0.6L323.57-1.95Q325.07-2.35 325.72-3.08 326.37-3.8 326.37-5.15L326.37-5.15 326.37-17Q326.37-18.45 325.92-19.1 325.47-19.75 324.42-19.75L324.42-19.75Q324.12-19.75 323.72-19.68 323.32-19.6 323.22-19.55L323.22-19.55 323.42-21.85Q325.87-22.2 328.39-22.73 330.92-23.25 331.67-23.4L331.67-23.4 332.02-22.7Q331.52-21.65 331.19-16.48 330.87-11.3 330.87-5.05L330.87-5.05Q330.87-3.7 331.24-3.13 331.62-2.55 332.52-2.55L332.52-2.55Q333.02-2.55 333.49-2.6 333.97-2.65 334.12-2.65L334.12-2.65 334.22-2.4 333.82 0.15Q333.32 0.1 331.89 0.05 330.47 0 328.87 0L328.87 0Q327.47 0 325.64 0.25 323.82 0.5 323.27 0.6L323.27 0.6ZM328.27-28.55Q326.87-28.55 326.12-29.4 325.37-30.25 325.37-31.55L325.37-31.55Q325.37-33.05 326.32-34.02 327.27-35 328.77-35L328.77-35Q330.12-35 330.89-34.15 331.67-33.3 331.67-32L331.67-32Q331.67-30.5 330.72-29.53 329.77-28.55 328.27-28.55L328.27-28.55ZM354.66 0.6Q350.36 0.6 349.96-3.35L349.96-3.35 349.66-3.45Q347.91-1.7 346.44-0.65 344.96 0.4 344.16 0.4L344.16 0.4Q341.31 0.4 339.44-1.5 337.56-3.4 337.56-6.25L337.56-6.25Q337.56-7.8 338.31-8.9 339.06-10 340.31-10.35L340.31-10.35 349.86-12.8 349.91-14.55Q349.91-16.9 348.76-18.2 347.61-19.5 345.56-19.5L345.56-19.5Q344.21-19.5 342.66-18.85 341.11-18.2 339.61-17.05L339.61-17.05 339.31-17.25 338.56-19.75Q340.91-21.15 343.49-22.28 346.06-23.4 347.21-23.4L347.21-23.4Q350.86-23.4 352.81-21.63 354.76-19.85 354.76-16.8L354.76-16.8Q354.76-16.2 354.36-12.3L354.36-12.3Q353.81-7 353.81-5.85L353.81-5.85Q353.81-4.85 354.31-4.25 354.81-3.65 355.76-3.65L355.76-3.65Q356.46-3.65 357.24-4 358.01-4.35 358.46-4.75L358.46-4.75 359.21-3.8Q358.41-2.4 357.16-1.1 355.91 0.2 354.66 0.6L354.66 0.6ZM345.46-3.6Q346.31-3.6 347.46-4.17 348.61-4.75 349.56-5.6L349.56-5.6 349.76-10.5 343.66-8.75Q342.31-8.3 342.31-6.85L342.31-6.85Q342.31-5.45 343.19-4.53 344.06-3.6 345.46-3.6L345.46-3.6ZM369.81 0.6Q366.31 0.6 364.81-0.83 363.31-2.25 363.31-5.5L363.31-5.5 363.31-17.3Q363.31-18.75 362.74-19.28 362.16-19.8 360.51-19.85L360.51-19.85 360.21-20.2 360.46-22.1Q362.11-22.9 363.71-24 365.31-25.1 366.36-25.93 367.41-26.75 367.66-27L367.66-27 368.86-26.5Q368.81-26.25 368.66-25.23 368.51-24.2 368.36-22.45L368.36-22.45 375.06-22.6 375.26-22.45 374.76-19.45 368.16-19.6Q367.81-14.25 367.81-7.85L367.81-7.85Q367.81-5.5 368.64-4.48 369.46-3.45 371.41-3.45L371.41-3.45Q372.11-3.45 372.81-3.65 373.51-3.85 373.99-4.05 374.46-4.25 374.61-4.3L374.61-4.3 375.16-2.85Q374.86-2.6 373.84-1.78 372.81-0.95 371.61-0.18 370.41 0.6 369.81 0.6L369.81 0.6ZM377.86 0.6L378.16-1.95Q379.66-2.35 380.31-3.08 380.96-3.8 380.96-5.15L380.96-5.15 380.96-17Q380.96-18.45 380.51-19.1 380.06-19.75 379.01-19.75L379.01-19.75Q378.71-19.75 378.31-19.68 377.91-19.6 377.81-19.55L377.81-19.55 378.01-21.85Q380.46-22.2 382.98-22.73 385.51-23.25 386.26-23.4L386.26-23.4 386.61-22.7Q386.11-21.65 385.78-16.48 385.46-11.3 385.46-5.05L385.46-5.05Q385.46-3.7 385.83-3.13 386.21-2.55 387.11-2.55L387.11-2.55Q387.61-2.55 388.08-2.6 388.56-2.65 388.71-2.65L388.71-2.65 388.81-2.4 388.41 0.15Q387.91 0.1 386.48 0.05 385.06 0 383.46 0L383.46 0Q382.06 0 380.23 0.25 378.41 0.5 377.86 0.6L377.86 0.6ZM382.86-28.55Q381.46-28.55 380.71-29.4 379.96-30.25 379.96-31.55L379.96-31.55Q379.96-33.05 380.91-34.02 381.86-35 383.36-35L383.36-35Q384.71-35 385.48-34.15 386.26-33.3 386.26-32L386.26-32Q386.26-30.5 385.31-29.53 384.36-28.55 382.86-28.55L382.86-28.55ZM398.96 0.8Q398.26-1.55 396.18-8.47 394.11-15.4 393.26-17.95L393.26-17.95Q392.41-20.45 389.96-20.5L389.96-20.5 389.86-20.7 390.21-22.85 394.61-22.8Q396.56-22.8 398.48-22.95 400.41-23.1 400.96-23.15L400.96-23.15 401.06-22.9 400.71-20.75Q399.06-20.65 398.53-20.4 398.01-20.15 398.01-19.45L398.01-19.45Q398.01-18.6 399.56-12.78 401.11-6.95 401.71-4.9L401.71-4.9 402.06-4.9Q402.81-6.85 403.06-7.4L403.06-7.4Q405.51-13.7 406.41-16.18 407.31-18.65 407.31-19.35L407.31-19.35Q407.31-20 406.91-20.23 406.51-20.45 405.36-20.45L405.36-20.45 403.71-20.45 403.51-20.75 403.81-22.85 409.26-22.8 413.56-22.85 413.16-20.5Q412.06-20.3 411.53-19.68 411.01-19.05 410.16-17.1L410.16-17.1 403.41 0 398.96 0.8ZM424.85 0.6Q419.85 0.6 416.9-2.48 413.95-5.55 413.95-10.65L413.95-10.65Q413.95-14.1 415.48-17.03 417-19.95 419.63-21.68 422.25-23.4 425.35-23.4L425.35-23.4Q429.25-23.4 431.25-21.43 433.25-19.45 433.25-15.6L433.25-15.6Q433.25-14.05 432.95-12.95L432.95-12.95 432.3-12.4 418.9-12.4Q418.9-8.1 420.73-5.8 422.55-3.5 425.9-3.5L425.9-3.5Q428.7-3.5 431.9-5L431.9-5 432.2-4.85 432.9-2.95Q431.1-1.6 428.8-0.5 426.5 0.6 424.85 0.6L424.85 0.6ZM419-14.65L427.05-15.05Q427.7-15.1 427.93-15.35 428.15-15.6 428.15-16.3L428.15-16.3Q428.15-18.2 427.2-19.23 426.25-20.25 424.45-20.25L424.45-20.25Q422.3-20.25 420.83-18.78 419.35-17.3 419-14.65L419-14.65Z" opacity="1" transform="matrix(1,0,0,1,0,0)" fill="#111111" class="slogan-text-1" data-fill-palette-color="secondary" id="text-1"></path></svg></g></svg></g></svg></g></svg></g><g><svg viewBox="0 0 122.13737893227926 142.1416342210345" height="142.1416342210345" width="122.13737893227926"><g><svg xmlns="http://www.w3.org/2000/svg" xmlns:xlink="http://www.w3.org/1999/xlink" version="1.1" x="0" y="0" viewBox="59.3036994934082 174.23046875 723.303955078125 841.7702026367188" enable-background="new 0 174.3 841.9 841.9" xml:space="preserve" width="122.13737893227926" height="142.1416342210345" class="icon-icon-0" data-fill-palette-color="accent" id="icon-0"><path d="M779.3 464.9l-63.8 175-59.3 212.3c-36.3 120.9-96.7 164-207.8 163.8-95.6-0.1-155-39.5-211.3-128.4l-171.6-290c-12.6-25.2-5.3-49.8 15.7-61.2 21-11.3 46.7-8.2 64.8 17.2 5.7 8 33.5 44.8 64.2 86.3 0 0 0.1 0.1 0.1 0.1 13 18.7 30.8 42.2 52.8 71.8l65.9 95.6 55 86.3c5.1 9.2 15.5 13.7 24 8.5 8.2-5 10.8-12.9 5.2-24.1l-36.2-76.1c-2.1-4.3 3.5-8.1 6.7-4.5l86.8 112.7c7.4 8.3 22.5 13.2 31.4 5.3 8.9-7.9 7.6-21.5 0.5-30.9l-73.2-103.8c-2.7-3.5 2.3-7.8 5.4-4.7l102.1 107.1c7.4 8.3 22.2 11.9 31.1 4 8.9-7.9 7.6-21.8-0.1-30.7L459 737.8c-2.6-3 1.2-7.3 4.5-5l92.2 70.3c11.3 7.9 25.4 9.2 33 0 8.5-10.2 1.5-24.6-8-32.3l-132.9-112c-21.2-16.6-13.5-34.9 12.8-34.2 33.5 1 71.1 1.5 77.5 1.7 15.1 0.6 23.9-8.3 25.8-19.7 1.9-11.4-5.4-21.5-18.8-24.2l-162-20.5c-19.9-1.9-43-4.3-66.5-5.7l9.2-261.8c0.4-25.3 16.5-48.1 43.9-47.3 24.6 0.7 42.7 21.2 44.1 49.6l3.9 220.8c0.3 8.3 12.2 9.2 13.8 1l49.9-308.5c4.7-23.8 27.7-39.5 51.8-35 24.2 4.5 39.9 28.7 35.7 51.3l-39.3 280.4c-1.2 9.1 12 11.7 14.4 2.9l66.8-229.2c6.3-23.5 27.9-38.2 52-33.7 24.2 4.5 38.9 31 34.7 53.5l-67.2 263.1c-1.7 9.6 11.6 14 15.9 5.2l66.2-130c11.2-23.3 29.3-29 47.8-22C779.1 423.8 787.9 444.9 779.3 464.9z" fill="#3d9970" data-fill-palette-color="accent"></path></svg></g></svg></g></svg></g><defs></defs></svg><rect width="395.52" height="105.36938696526884" fill="none" stroke="none" visibility="hidden"></rect></g></svg></g></svg>